<?xml version="1.0" encoding="utf-8"?>
<!-- Generator: Adobe Illustrator 26.1.0, SVG Export Plug-In . SVG Version: 6.00 Build 0)  -->
<svg version="1.1" id="Layer_1" xmlns="http://www.w3.org/2000/svg" xmlns:xlink="http://www.w3.org/1999/xlink" x="0px" y="0px"
	 viewBox="0 0 437.3 189.2" style="enable-background:new 0 0 437.3 189.2;" xml:space="preserve">
<style type="text/css">
	.st0{fill:#100F25;}
</style>
<g>
	<path class="st0" d="M46.7,117.4c-0.1,0-0.2,0-0.4,0c-0.2,0-0.3,0-0.4,0c-0.6-0.2-1-0.6-1.3-1.4c-0.3-0.8-0.5-1.8-0.7-2.9
		c-0.1-0.5-0.1-1-0.1-1.5c0-0.5-0.1-1.1-0.1-1.6c-0.1-3.1,0.3-6.5,1.1-10.1c0.8-3.6,1.8-7.3,3.2-11.1c1.3-3.8,2.8-7.8,4.4-11.8
		c1.6-4,3.3-8,4.9-11.9c1.7-3.8,3.2-7.6,4.7-11.3c1.5-3.7,2.7-7.1,3.6-10.3c0-0.1,0.1-0.3,0.2-0.7c0.1-0.3,0-0.5-0.2-0.5
		c-0.4,0.7-0.8,1.8-1.4,3.1c-0.6,1.4-1.2,2.8-1.8,4.4c-0.7,1.6-1.3,3.1-1.9,4.6c-0.6,1.5-1.2,2.7-1.7,3.6
		c-2.5,5.1-5.1,10.1-7.8,14.8s-6,8.9-9.9,12.3c-1.5,1.2-3.5,2.4-5.7,3.6c-2.3,1.1-4.3,1.8-6.2,2c-1.9,0.2-3.4-0.2-4.6-1.4
		c-1.2-1.1-1.9-2.7-2.1-4.6c-0.2-1.7,0-3.6,0.7-5.5c0.5-1.5,1.4-3.3,2.8-5.4c1.4-2.1,3.1-4.3,5.1-6.4c2-2.1,4.2-4,6.6-5.5
		c0.4-0.3,0.5-0.2,0.3,0.1c-0.2,0.4-0.5,0.7-0.7,0.9c-3.1,3.7-5.5,7.1-7,10.2c-1.5,3.1-2.5,5.8-3,8c-0.5,2.1-0.7,3.8-0.5,5.2
		c0.2,1.8,1,2.7,2.5,2.5c1-0.1,2.2-0.6,3.5-1.4c1.3-0.8,2.7-1.8,3.9-2.8c1.3-1,2.3-1.9,3-2.7c1.6-1.7,3.3-3.7,4.9-6
		c1.6-2.2,3.2-4.5,4.7-7c1.5-2.4,3-4.9,4.4-7.4l4-7.2c1.2-2.3,2.3-4.3,3.4-6.2c1.1-1.9,2-3.4,2.7-4.6c0.4-0.7,0.8-1.3,1.3-1.9
		c0.5-0.6,1.2-1,2.1-1.1c1.1-0.1,1.9,0.1,2.4,0.7s0.8,1.3,0.9,2.1c0.1,1.1,0,2.2-0.5,3.3c-1,2.7-2.3,5.7-3.7,9
		c-1.5,3.4-3,6.9-4.6,10.5c-1.6,3.6-3.1,7.4-4.7,11.1c-1.6,3.8-3.1,7.6-4.4,11.2c-1.3,3.6-2.5,7.1-3.4,10.5c-0.9,3.3-1.5,6.3-1.7,9
		c-0.2,2-0.3,3.7-0.3,5.2l0.1,1c0.1,0.8,0.3,1.2,0.5,1.2c0.2,0,0.6-0.6,1-1.7c0.4-1.1,1-2.5,1.5-4.3c0.6-1.8,1.3-3.9,2-6.3l2.2-7.6
		c0.8-2.6,1.6-5.3,2.4-8c0.8-2.7,1.6-5.3,2.4-7.8c0.5-1.6,1.1-3.4,1.9-5.6s1.6-4.4,2.6-6.8c1-2.4,2-4.7,3.1-6.9
		c1.1-2.3,2.2-4.3,3.2-6c3.1-5.4,6.2-9.6,9.2-12.6s6.6-4.9,10.6-5.8c0.3-0.1,0.5-0.1,0.7-0.2c0.2,0,0.4,0,0.7-0.1
		c3.3-0.4,6.2,0.4,8.6,2.3c2.4,1.9,3.8,4.8,4.2,8.5c0.3,2.7-0.2,5.6-1.4,8.7c-1.2,3.1-3,6.1-5.2,9c-2.2,2.9-4.6,5.6-7.3,8
		c-3.1,2.7-6.5,5.1-10.1,7.1c-3.6,2-7.2,3.4-10.8,4.2c-0.4,0.1-0.9,0.2-1.3,0.3c-0.4,0.1-0.9,0.1-1.2,0.2c-0.9,0.1-1.7,0.1-2.5,0
		c-1.4-0.2-2.3-0.4-2.7-0.6c-0.5-0.2-0.8-0.4-0.8-0.6c0-0.3,0.3-0.3,0.9-0.1c0.6,0.2,1.5,0.3,2.7,0.1c0.6-0.1,1.3-0.2,1.9-0.3
		c0.7-0.2,1.4-0.3,2.1-0.4c2.1-0.5,4.4-1.4,6.6-2.9c2.3-1.5,4.5-3.2,6.7-5.1c2.2-2,4.1-3.9,5.9-5.8c0.7-0.6,1.5-1.6,2.4-3
		c0.9-1.4,1.9-2.9,3-4.7c1-1.8,2-3.6,2.9-5.4s1.7-3.6,2.2-5.1c1.1-2.9,1.5-5.3,1.3-7.2c-0.2-1.9-0.9-3.3-2.2-4.1
		c-1.2-0.8-2.8-1.1-4.7-0.9c-1.6,0.2-3.2,0.6-4.8,1.3c-1.9,0.9-3.8,2.1-5.8,3.7c-1.9,1.6-3.6,3.4-5.1,5.5c-3.3,4.6-6.2,9.4-8.8,14.3
		c-2.6,4.9-4.8,10-6.7,15.3c-0.5,1.3-0.9,3.1-1.4,5.3c-0.3,1.3-0.6,2.8-1,4.6c-0.4,1.8-0.8,3.6-1.2,5.5c-0.4,1.9-0.8,3.5-1.2,5
		c-0.7,2.7-1.4,5.2-2.1,7.6c-0.7,2.4-1.6,4.5-2.4,6.4c-0.9,1.8-1.8,3.2-2.9,4c-0.3,0.3-0.7,0.5-1.2,0.7
		C47.7,117.2,47.2,117.3,46.7,117.4z"/>
	<path class="st0" d="M110.8,106.1c-1.6,0.2-2.8-0.1-3.5-0.9c-0.7-0.8-1.2-2-1.3-3.6c-0.2-1.8,0-3.9,0.7-6.2
		c0.7-2.4,1.6-4.7,2.6-7.1c1-2.3,2-4.4,2.9-6.2c0.2-0.4,0.5-1,1-2c0.5-1,1-2.1,1.6-3.3c0.6-1.2,1.1-2.4,1.6-3.5
		c0.5-1.1,0.8-2,1.1-2.6c0.6-1.6,0.9-2.8,0.8-3.6c0-0.4-0.2-0.7-0.6-0.6c-0.8,0.1-2.4,1.4-4.8,4c-0.9,1.1-2,2.5-3.3,4.2
		c-1.3,1.7-2.7,3.6-4.1,5.7c-1.4,2-2.7,4.2-3.9,6.3c-1.2,2.2-2.1,4.2-2.7,6.1c-0.3,0.8-0.6,1.3-1,1.7c-0.4,0.4-0.8,0.6-1.2,0.6
		c-0.9,0.1-1.5-0.4-1.6-1.4c0-0.4,0-0.8,0.1-1.2c0.4-1.6,1-3.8,1.7-6.4c0.8-2.7,1.6-5.5,2.5-8.5c0.9-3,1.8-5.9,2.7-8.8
		c0.9-2.8,1.7-5.2,2.3-7.1c-1.1,0.5-2.2,0.9-3.1,1.2c-0.9,0.3-1.7,0.5-2.5,0.6c-0.4,0.1-0.8,0.1-0.9,0c-0.6-0.1-1-0.2-1-0.4
		s0.3-0.3,1-0.5c0.8-0.1,1.8-0.4,3-0.8c1.2-0.4,2.5-1,3.9-1.7c0.7-2,1.5-4.4,2.4-6.9c0.9-2.6,2.1-5.2,3.3-7.9
		c1.3-2.7,2.7-5.3,4.3-7.9c1.6-2.6,3.3-4.9,5.3-7c2-2.1,4.1-3.8,6.4-5.2c2.3-1.4,4.8-2.3,7.6-2.6c1.4-0.2,2.6,0.2,3.6,1
		c0.9,0.8,1.5,2.1,1.7,3.7c0.2,1.6-0.1,3.3-1,5.1c-0.8,1.9-2,3.8-3.5,5.8c-1.5,1.9-3.3,3.9-5.3,5.9c-2.1,2-4.3,3.9-6.5,5.7
		c-2.3,1.8-4.6,3.6-7,5.2c-2.4,1.6-4.7,3-6.9,4.2c-1.5,4-2.9,8-4.1,12.1c-1.3,4.1-2.4,7.9-3.4,11.6c0.3-0.6,0.9-1.5,1.8-2.8
		c0.9-1.3,1.8-2.7,2.9-4.1c1.1-1.5,2.1-2.8,2.9-3.9c1-1.2,2.1-2.4,3.4-3.7s2.6-2.4,3.9-3.3c1.3-0.9,2.4-1.4,3.5-1.5
		c1.1-0.1,1.9,0,2.5,0.4c0.5,0.4,0.8,1,0.9,1.8c0.1,1.2-0.1,2.6-0.7,4.2c-0.6,1.6-1.2,3.2-1.8,4.6c-0.3,0.8-0.9,2-1.7,3.6
		c-0.8,1.6-1.6,3.3-2.5,5c-0.9,1.7-1.6,3.1-2.1,4.2c-0.7,1.3-1.4,2.8-2.2,4.5c-0.7,1.7-1.4,3.2-1.9,4.7s-0.8,2.6-0.8,3.4
		c0,0.3,0,0.6,0,0.9c0,0.3,0,0.5,0,0.8c0.1,1.3,0.7,1.9,1.7,1.8c0.5-0.1,1-0.2,1.5-0.5c0.5-0.2,1.3-0.8,2.2-1.8
		c0.9-1,1.9-2.1,2.9-3.4c1-1.3,1.9-2.5,2.8-3.7c0.9-1.2,1.5-2.1,2-2.8l5.4-7.9c0.2-0.4,0.5-0.7,0.8-1.1c0.3-0.3,0.5-0.7,0.8-1.1
		c0.4-0.7,0.9-1.4,1.4-2.1c0.1-0.2,0.3-0.3,0.5-0.3c0.3,0,0.5,0.1,0.6,0.5c0,0.2-0.1,0.5-0.3,1c-0.5,0.8-1.1,1.7-1.7,2.6
		c-0.6,0.9-1.2,1.8-1.7,2.6c-0.4,0.6-1,1.5-1.8,2.8c-0.8,1.3-1.6,2.6-2.5,4.1c-0.9,1.5-1.8,2.8-2.6,3.9c-1,1.3-2.1,2.8-3.3,4.3
		c-1.2,1.5-2.5,2.8-3.8,3.8C113.1,105.4,111.9,106,110.8,106.1z M110,57.2c2.1-1.2,4.2-2.7,6.4-4.3c2.1-1.5,4.2-3.2,6.3-4.9
		c2.1-1.7,4-3.5,5.8-5.3c1.8-1.8,3.3-3.6,4.6-5.4c1.4-1.8,2.4-3.6,3-5.3c0.7-1.7,0.9-3.3,0.7-4.8c-0.1-0.5-0.2-1-0.5-1.5
		c-0.3-0.5-1-0.7-2.1-0.5c-1.7,0.2-3.4,0.8-5.1,2c-1.7,1.1-3.3,2.5-4.8,4.2c-1.5,1.7-2.9,3.4-4.2,5.2c-1.3,1.8-2.3,3.5-3.2,5.1
		C114.6,45.7,112.3,50.9,110,57.2z"/>
	<path class="st0" d="M135.3,91.9c-2.9,0.3-4.5-1.3-4.9-4.9c-0.1-0.8-0.1-1.7-0.1-2.7c0.1-1.2,0.4-2.6,0.8-4.4
		c0.5-1.7,1-3.4,1.6-5.2c0.6-1.7,1.2-3.2,1.7-4.5c0.5-1,1-2.1,1.6-3.4c0.6-1.3,1.2-2.5,1.7-3.7c0.6-1.1,0.9-1.9,1-2.2
		c0.3-0.8,0.9-1.4,1.8-1.9c1-0.5,1.8-0.8,2.6-0.9c0.9-0.1,1.4,0.1,1.4,0.6c0,0.3,0,0.7-0.2,1c-0.9,1.8-1.9,4-3,6.4
		c-1.2,2.4-2.3,4.9-3.3,7.5c-1.1,2.5-1.9,5-2.6,7.2c-0.7,2.3-0.9,4.2-0.7,5.7c0.1,0.8,0.3,1.5,0.7,2c0.4,0.5,1,0.7,1.8,0.6
		c0.9-0.1,1.9-0.6,2.9-1.6s2.1-2.1,3-3.3c1-1.2,1.7-2.1,2.2-2.8l1.5-1.9c0.2-0.3,0.5-0.6,0.7-1c0.2-0.3,0.4-0.6,0.6-1
		c0.1-0.2,0.3-0.3,0.4-0.3c0.3,0,0.5,0.2,0.6,0.7c0,0.3-0.1,0.5-0.2,0.8c-0.5,0.9-1.1,1.7-1.6,2.5c-0.5,0.8-1.1,1.6-1.7,2.4
		c-1.2,1.8-2.6,3.6-4.3,5.4C139.4,90.6,137.5,91.6,135.3,91.9z M144.7,53.9c-1.4,0.2-2.2-0.5-2.4-1.8c-0.1-0.8,0.1-1.6,0.7-2.2
		c0.5-0.7,1.2-1,1.9-1.1s1.3,0.1,1.8,0.6c0.5,0.5,0.7,1.1,0.7,1.8c-0.1,0.7-0.4,1.4-0.8,1.9C146,53.5,145.4,53.8,144.7,53.9z"/>
	<path class="st0" d="M149.2,105.2c-1.1,0.1-2-0.2-2.9-1c-0.9-0.8-1.4-2.2-1.6-4c-0.1-1.1-0.1-2.2,0-3.3c0.4-5.3,1.2-11,2.6-17
		c1.4-6,3.2-12,5.6-18c-3.4,1.6-6.2,2.5-8.5,2.7c-1.1,0.1-1.8,0.1-2.4,0c-0.5-0.1-0.8-0.3-0.8-0.5c0-0.3,0.5-0.5,1.5-0.6
		c0.2,0,0.4,0,0.6,0s0.4,0,0.6-0.1c1.3-0.1,2.8-0.5,4.4-1.1c1.6-0.6,3.3-1.4,5.2-2.3c2.4-5.8,5.1-11.4,8.2-16.8s6.5-10.2,10.3-14.5
		c1.3-1.4,2.7-2.6,4.1-3.5c1.4-0.9,2.8-1.5,4.1-1.6c1.1-0.1,2.1,0.1,2.9,0.6c0.9,0.5,1.5,1.5,1.9,2.9c0.1,0.2,0.2,0.5,0.2,0.7
		c0.1,0.3,0.1,0.6,0.1,0.8c0.1,1.1,0,2.2-0.3,3.5c-1,3.7-3.4,7.5-7.2,11.5c-1.9,2-3.9,3.9-6,5.7c-2.2,1.8-4.4,3.6-6.8,5.2
		c-2.4,1.7-4.7,3.2-7,4.4c-1.5,3.4-2.8,6.8-4,10.3c-1.2,3.5-2.2,6.8-2.9,10.1c-0.8,3.4-1.4,6.6-1.7,9.6c-0.3,3.1-0.4,5.9-0.1,8.5
		c0.3,2.4,1,3.6,2.2,3.5c0.7-0.1,1.6-0.5,2.7-1.1c1.6-1.2,3-2.4,4.1-3.6c1.1-1.2,2.2-2.6,3.3-4.2c0.5-0.8,1.3-2,2.3-3.5
		c1-1.5,2.1-3.2,3.2-5c1.2-1.8,2.3-3.4,3.3-5c1-1.5,1.9-2.9,2.9-4.2c0.2-0.2,0.3-0.3,0.4-0.3c0.3,0,0.5,0.2,0.6,0.6
		c0,0.3,0,0.6-0.2,0.9c-0.5,0.8-1.1,1.7-1.7,2.6c-0.6,0.9-1.2,1.8-1.7,2.6c-0.3,0.4-0.8,1.1-1.6,2.3c-0.8,1.2-1.7,2.6-2.7,4.2
		c-1.1,1.6-2.1,3.3-3.3,4.9c-1.1,1.7-2.1,3.2-3.1,4.6c-0.9,1.4-1.7,2.5-2.3,3.2c-1.1,1.3-2.3,2.4-3.6,3.4
		C152.6,104.4,151,105,149.2,105.2z M159,56.6c2.6-1.6,5.2-3.6,7.8-5.7c2.6-2.2,5.1-4.5,7.4-6.9c2.3-2.4,4.3-4.9,5.9-7.3
		c1.6-2.4,2.6-4.7,3.1-6.9c0.1-0.7,0.2-1.4,0.1-2c-0.2-1.7-1-2.5-2.4-2.4c-0.9,0.1-1.8,0.6-2.6,1.5c-3.4,3.4-6.8,7.7-10.1,12.9
		C164.9,44.9,161.8,50.5,159,56.6z"/>
	<path class="st0" d="M177.3,87.2c-2.9,0.3-4.5-1.3-4.9-4.9c-0.1-0.8-0.1-1.7-0.1-2.7c0.1-1.2,0.4-2.6,0.8-4.4
		c0.5-1.7,1-3.4,1.6-5.2c0.6-1.7,1.2-3.2,1.7-4.5c0.5-1,1-2.1,1.6-3.4c0.6-1.3,1.2-2.5,1.7-3.7c0.6-1.1,0.9-1.9,1-2.2
		c0.3-0.8,0.9-1.4,1.8-1.9c1-0.5,1.8-0.8,2.6-0.9c0.9-0.1,1.4,0.1,1.4,0.6c0,0.3,0,0.7-0.2,1c-0.9,1.8-1.9,4-3,6.4
		c-1.2,2.4-2.3,4.9-3.3,7.5c-1.1,2.5-1.9,5-2.6,7.2c-0.7,2.3-0.9,4.2-0.7,5.7c0.1,0.8,0.3,1.5,0.7,2c0.4,0.5,1,0.7,1.8,0.6
		c0.9-0.1,1.9-0.6,2.9-1.6s2.1-2.1,3-3.3c1-1.2,1.7-2.1,2.2-2.8l1.5-1.9c0.2-0.3,0.5-0.6,0.7-1c0.2-0.3,0.4-0.6,0.6-1
		c0.1-0.2,0.3-0.3,0.4-0.3c0.3,0,0.5,0.2,0.6,0.7c0,0.3-0.1,0.5-0.2,0.8c-0.5,0.9-1.1,1.7-1.6,2.5c-0.5,0.8-1.1,1.6-1.7,2.4
		c-1.2,1.8-2.6,3.6-4.3,5.4C181.5,85.9,179.6,86.9,177.3,87.2z M186.8,49.2c-1.4,0.2-2.2-0.5-2.4-1.8c-0.1-0.8,0.1-1.6,0.7-2.2
		s1.2-1,1.9-1.1s1.3,0.1,1.8,0.6c0.5,0.5,0.7,1.1,0.7,1.8c-0.1,0.7-0.4,1.4-0.8,1.9C188.1,48.8,187.5,49.1,186.8,49.2z"/>
	<path class="st0" d="M180.5,122.7c-0.4,0-0.9-0.5-1.5-1.5c-0.6-1.1-1-2.4-1.2-4.1c-0.1-0.5-0.1-1-0.1-1.6c0-0.6,0-1.1,0.1-1.7
		c0.3-2.7,0.9-5.8,1.8-9.2c0.8-3.5,1.8-7.1,2.9-11c1.1-3.8,2.4-7.8,3.8-11.8c1.4-4,2.7-7.9,4.1-11.6c1.4-3.7,2.7-7.2,4-10.4
		c1.3-3.2,2.5-6,3.5-8.3c1.6-3.5,3.1-6.2,4.5-8c1.4-1.8,2.9-3.2,4.3-4c1.5-0.9,3-1.6,4.7-2.2c-1.4,1.8-2.9,4-4.5,6.7
		c-3.2,5.5-6.3,11.8-9.4,18.9c-1.5,3.6-3,7.1-4.3,10.5c-1.4,3.5-2.7,6.9-3.9,10.2c-1.2,3.3-2.2,6.3-3,9L186,94l-0.5,2.3
		c0.8-2.6,1.8-5.3,2.9-8.3c1.1-2.9,2.3-5.9,3.5-8.8c1.3-2.9,2.5-5.6,3.7-8.2c1.2-2.5,2.4-4.7,3.3-6.4c1.5-2.5,3.1-4.7,4.7-6.4
		c1.6-1.7,3.1-2.6,4.4-2.8c1.6-0.2,2.7,0.2,3.4,1c0.7,0.8,1.1,1.9,1.3,3.3c0.2,2,0.1,4.2-0.5,6.6c-0.5,2.4-1.4,4.8-2.6,7.1
		c-1.2,2.4-2.6,4.6-4.3,6.7c-1.7,2-3.5,3.7-5.6,5.1s-4.2,2.2-6.4,2.4c-1.2,0.1-2-0.3-2.6-1.1c-1.3,3.3-2.6,6.9-3.9,10.8
		c-1.3,3.9-2.7,8.3-4.3,13.2c-0.3,2.1-0.6,4.2-0.9,6.1c-0.3,1.9-0.5,3.7-0.7,5.1C181,122.3,180.8,122.6,180.5,122.7z M193.4,86.1
		c1.8-0.2,3.6-1.2,5.4-2.9c1.8-1.7,3.3-3.9,4.8-6.4c1.4-2.5,2.5-5.1,3.2-7.6c0.2-0.8,0.5-1.8,0.7-3c0.2-1.2,0.4-2.4,0.6-3.6
		c0.1-1.2,0.2-2.2,0.1-3c-0.1-1.1-0.5-1.6-1-1.5c-0.9,0.1-2,0.8-3,2.2c-1.1,1.3-2.1,3-3.2,4.9c-1.7,3.1-3.3,6.2-4.9,9.4
		c-1.6,3.2-3.1,6.8-4.7,10.8C191.7,86,192.4,86.2,193.4,86.1z"/>
	<path class="st0" d="M205.9,119.8c-0.4,0-0.9-0.5-1.5-1.5c-0.6-1.1-1-2.4-1.2-4.1c-0.1-0.5-0.1-1-0.1-1.6c0-0.6,0-1.1,0.1-1.7
		c0.3-2.7,0.9-5.8,1.8-9.2c0.8-3.5,1.8-7.1,2.9-11c1.1-3.8,2.4-7.8,3.8-11.8c1.4-4,2.7-7.9,4.1-11.6c1.4-3.7,2.7-7.2,4-10.4
		c1.3-3.2,2.5-6,3.5-8.3c1.6-3.5,3.1-6.2,4.5-8c1.4-1.8,2.9-3.2,4.3-4s3-1.6,4.7-2.2c-1.4,1.8-2.9,4-4.5,6.7
		c-3.2,5.5-6.3,11.8-9.4,18.9c-1.5,3.6-3,7.1-4.3,10.5c-1.4,3.5-2.7,6.9-3.9,10.2c-1.2,3.3-2.2,6.3-3,9l-0.4,1.7l-0.5,2.3
		c0.8-2.6,1.8-5.3,2.9-8.3c1.1-2.9,2.3-5.9,3.5-8.8c1.3-2.9,2.5-5.6,3.7-8.2c1.2-2.5,2.4-4.7,3.3-6.4c1.5-2.5,3.1-4.7,4.7-6.4
		c1.6-1.7,3.1-2.6,4.4-2.8c1.6-0.2,2.7,0.2,3.4,1c0.7,0.8,1.1,1.9,1.3,3.3c0.2,2,0.1,4.2-0.5,6.6c-0.5,2.4-1.4,4.8-2.6,7.1
		c-1.2,2.4-2.6,4.6-4.3,6.7c-1.7,2-3.5,3.7-5.6,5.1s-4.2,2.2-6.4,2.4c-1.2,0.1-2-0.3-2.6-1.1c-1.3,3.3-2.6,6.9-3.9,10.8
		c-1.3,3.9-2.7,8.3-4.3,13.2c-0.3,2.1-0.6,4.2-0.9,6.1c-0.3,1.9-0.5,3.7-0.7,5.1C206.4,119.5,206.2,119.8,205.9,119.8z M218.8,83.3
		c1.8-0.2,3.6-1.2,5.4-2.9c1.8-1.7,3.3-3.9,4.8-6.4c1.4-2.5,2.5-5.1,3.2-7.6c0.2-0.8,0.5-1.8,0.7-3c0.2-1.2,0.4-2.4,0.6-3.6
		c0.1-1.2,0.2-2.2,0.1-3c-0.1-1.1-0.5-1.6-1-1.5c-0.9,0.1-2,0.8-3,2.2c-1.1,1.3-2.1,3-3.2,4.9c-1.7,3.1-3.3,6.2-4.9,9.4
		c-1.6,3.2-3.1,6.8-4.7,10.8C217.1,83.2,217.8,83.4,218.8,83.3z"/>
	<path class="st0" d="M258.8,78.4c-2.2,0.2-3.5-1.1-3.8-4c-0.1-1-0.1-2.1,0.1-3.4c0.1-0.4,0.2-1.1,0.5-2c0.3-0.9,0.6-2,1-3.1
		c0.4-1.1,0.7-2.2,1.1-3.3c0.3-1,0.6-1.8,0.7-2.4c-1,1.9-2.1,3.8-3.3,5.7c-1.2,1.9-2.6,3.5-4.1,4.9c-1.5,1.3-3.1,2.1-5,2.3
		c-1.7,0.1-3-0.2-3.8-1c-0.8-0.8-1.3-1.9-1.5-3.1c-0.2-1.5,0-3.2,0.5-5c0.5-1.9,1-3.5,1.7-5c1.2-2.4,2.7-4.9,4.5-7.3
		c1.8-2.4,3.8-4.4,6-6.1c2.2-1.7,4.3-2.6,6.4-2.9c1.1-0.1,2.2-0.1,3.3,0.2c1.1,0.2,2.2,0.7,3.4,1.4c0.9,0.6,1.4,1.2,1.5,2
		c0.1,0.8-0.2,1.2-0.9,1.3c-0.5,0.1-0.9-0.2-1.2-0.9c-0.9-1.8-2.2-2.6-3.8-2.4c-1.4,0.2-3,1-4.6,2.5c-1.6,1.5-3.2,3.2-4.7,5.2
		c-1.7,2.2-3.2,4.5-4.5,7c-1.2,2.5-2.1,4.7-2.7,6.7c-0.5,1.8-0.8,3.1-0.7,4c0.1,1.1,0.6,1.5,1.4,1.4c0.9-0.1,2.3-1,3.9-2.6
		c1.1-1.1,2.3-2.5,3.6-4.2c1.3-1.7,2.5-3.4,3.6-5c1.1-1.6,2-2.9,2.6-3.8c0.5-1,0.9-1.8,1.3-2.4c0.2-0.4,0.5-0.6,1-0.9
		c0.5-0.2,1-0.4,1.6-0.4c0.7-0.1,1.2,0,1.7,0.2c0.5,0.2,0.6,0.6,0.5,1.1c-0.2,0.5-0.5,1.5-1.1,3c-0.6,1.5-1.2,3.2-2,5.1
		c-0.7,1.9-1.4,3.7-2,5.4c-0.6,1.7-1.1,3-1.4,4c-0.6,1.8-0.8,3.1-0.7,4c0.1,0.7,0.4,1.1,1,1c0.4,0,1-0.3,1.7-0.9
		c1.2-0.7,2.3-1.8,3.4-3c1.1-1.3,2.1-2.6,3.1-4c0.5-0.7,1-1.3,1.5-1.9c0.4-0.6,0.8-1.2,1.2-1.9c0.1-0.2,0.3-0.3,0.4-0.3
		c0.3,0,0.5,0.2,0.6,0.7c0,0.3-0.1,0.5-0.2,0.8c-0.5,0.8-1.1,1.7-1.6,2.5c-0.5,0.8-1.1,1.6-1.7,2.4c-0.5,0.8-1.1,1.6-1.6,2.3
		c-0.6,0.8-1.1,1.5-1.7,2.2c-1.1,1.3-2.2,2.3-3.2,3C260.5,77.9,259.6,78.3,258.8,78.4z"/>
</g>
<g>
	<path class="st0" d="M266.7,164.7c-0.1,0-0.3,0.1-0.4,0.1c-0.2,0-0.3,0-0.4,0c-0.6-0.1-1.1-0.6-1.5-1.3c-0.4-0.8-0.7-1.8-1-3
		c-0.1-0.5-0.2-1-0.3-1.6c-0.1-0.6-0.2-1.1-0.2-1.7c-0.4-3.2-0.3-6.7,0.2-10.6c0.5-3.8,1.2-7.7,2.2-11.9c1-4.1,2.2-8.3,3.5-12.7
		c1.3-4.3,2.7-8.6,4-12.8c1.4-4.2,2.6-8.2,3.8-12.2c1.2-4,2.1-7.7,2.8-11.1c0-0.1,0.1-0.4,0.1-0.7c0-0.4,0-0.5-0.3-0.5
		c-0.3,0.8-0.7,1.9-1.1,3.4c-0.4,1.5-0.9,3.1-1.5,4.8c-0.5,1.7-1.1,3.4-1.6,4.9c-0.5,1.6-1,2.9-1.4,3.9c-2.1,5.6-4.4,10.9-6.7,16.1
		c-2.3,5.2-5.4,9.8-9.1,13.8c-1.5,1.4-3.4,2.9-5.6,4.2c-2.3,1.4-4.4,2.3-6.3,2.7s-3.6,0.1-4.9-1c-1.3-1.1-2.2-2.6-2.6-4.6
		c-0.4-1.8-0.3-3.7,0.2-5.8c0.3-1.6,1.1-3.5,2.4-5.9c1.2-2.3,2.8-4.7,4.7-7.1c1.9-2.4,4-4.5,6.3-6.3c0.4-0.3,0.4-0.3,0.3,0.1
		c-0.2,0.4-0.4,0.7-0.7,1c-2.9,4.2-5,7.9-6.3,11.3c-1.3,3.4-2.1,6.2-2.4,8.6c-0.3,2.2-0.3,4,0,5.5c0.4,1.9,1.3,2.7,2.8,2.4
		c1-0.2,2.2-0.8,3.5-1.8c1.3-1,2.6-2.1,3.8-3.3c1.2-1.2,2.2-2.2,2.9-3.1c1.5-1.9,3-4.1,4.5-6.7c1.5-2.4,2.9-5,4.2-7.7
		c1.4-2.7,2.7-5.4,3.9-8.1l3.5-7.9c1-2.5,2-4.7,3-6.8c0.9-2,1.7-3.7,2.4-5.1c0.3-0.7,0.7-1.4,1.2-2.1c0.5-0.7,1.1-1.1,2.1-1.3
		c1.1-0.2,2-0.1,2.6,0.5c0.6,0.5,0.9,1.2,1.1,2.1c0.2,1.1,0.2,2.3-0.2,3.4c-0.8,2.9-1.8,6.2-3,9.7c-1.2,3.7-2.5,7.4-3.8,11.4
		c-1.3,3.9-2.6,7.9-3.8,12c-1.3,4.1-2.5,8.2-3.5,12.1c-1,3.9-1.9,7.6-2.5,11.2c-0.6,3.6-0.9,6.7-1,9.5c0,2.1,0,3.9,0.2,5.4l0.2,1
		c0.2,0.9,0.4,1.3,0.6,1.2c0.2,0,0.5-0.7,0.9-1.9c0.4-1.1,0.8-2.7,1.2-4.6c0.4-1.9,0.9-4.2,1.5-6.7l1.6-8.1c0.6-2.8,1.1-5.6,1.7-8.5
		c0.6-2.9,1.2-5.7,1.8-8.3c0.4-1.7,0.9-3.7,1.5-6c0.6-2.3,1.3-4.8,2.1-7.3c0.8-2.5,1.7-5,2.6-7.5c0.9-2.5,1.9-4.6,2.8-6.6
		c2.7-5.9,5.5-10.5,8.4-13.9s6.4-5.8,10.5-7c0.3-0.1,0.5-0.2,0.8-0.2c0.2,0,0.5-0.1,0.7-0.1c3.4-0.7,6.5-0.2,9.1,1.6
		c2.7,1.8,4.4,4.6,5.2,8.4c0.6,2.8,0.4,5.9-0.6,9.2c-1,3.3-2.5,6.6-4.5,9.8c-2,3.3-4.3,6.3-6.8,9c-3,3.1-6.3,5.9-9.8,8.4
		c-3.6,2.5-7.2,4.2-10.8,5.3c-0.4,0.2-0.9,0.3-1.3,0.4c-0.5,0.1-0.9,0.2-1.3,0.3c-0.9,0.2-1.8,0.3-2.6,0.3c-1.4-0.1-2.4-0.2-2.9-0.4
		c-0.6-0.2-0.9-0.4-0.9-0.5c-0.1-0.3,0.3-0.4,0.9-0.2c0.6,0.2,1.6,0.1,2.8-0.1c0.6-0.1,1.3-0.3,2-0.5s1.4-0.5,2.1-0.7
		c2.2-0.7,4.4-1.9,6.6-3.6s4.4-3.7,6.5-6c2.1-2.2,3.9-4.4,5.6-6.6c0.6-0.7,1.4-1.8,2.2-3.4c0.9-1.5,1.7-3.2,2.7-5.2
		c0.9-1.9,1.8-3.9,2.6-5.9c0.8-2,1.4-3.9,1.8-5.6c0.8-3.2,1.1-5.7,0.7-7.6c-0.4-2-1.3-3.4-2.6-4.1c-1.3-0.7-3-0.9-5-0.4
		c-1.7,0.3-3.3,0.9-4.8,1.8c-1.9,1.1-3.8,2.6-5.6,4.4c-1.8,1.8-3.4,3.9-4.7,6.2c-2.9,5.1-5.5,10.4-7.8,15.7
		c-2.2,5.4-4.1,10.9-5.5,16.5c-0.4,1.4-0.7,3.3-1,5.7c-0.1,1.3-0.3,3-0.6,4.9c-0.2,1.9-0.5,3.8-0.8,5.8c-0.3,2-0.5,3.7-0.8,5.3
		c-0.4,2.9-0.9,5.6-1.5,8.1c-0.6,2.6-1.2,4.8-1.9,6.8c-0.7,2-1.6,3.5-2.6,4.4c-0.3,0.3-0.7,0.6-1.2,0.9
		C267.7,164.4,267.2,164.6,266.7,164.7z"/>
	<path class="st0" d="M324.7,149.2c-2.2,0.5-4.1-0.1-5.7-1.7c-1.6-1.6-2.7-4-3.4-7.3c-0.1-0.6-0.2-1.1-0.3-1.7
		c-0.1-0.6-0.2-1.2-0.2-1.8c-0.2-2.9,0-6.1,0.7-9.7c0.7-3.6,2.2-7.6,4.3-12c1.4-2.9,3.2-5.2,5.2-7c2-1.7,4.1-2.8,6.2-3.2
		c1.5-0.3,2.9-0.3,4.1,0.1c1.5,0.5,2.5,1.7,2.9,3.6c0.3,1.4,0.1,3.1-0.6,5.1c-0.7,2-2.1,4-4.2,6.1c-2.8,2.7-5.3,4.7-7.3,5.8
		c-2,1.1-3.7,1.9-5,2.2c-0.3,0.7-0.6,1.8-0.8,3.2c-0.2,1.4-0.3,2.9-0.3,4.4c0,1.5,0,2.9,0.2,4c0,0.2,0.1,0.5,0.1,0.7
		c0,0.3,0.1,0.5,0.1,0.8c0.4,1.7,1,3.1,1.8,4.2c0.9,1.1,2.1,1.5,3.6,1.2c1.4-0.3,2.8-1.1,4.3-2.5c1.5-1.4,3-2.9,4.4-4.7
		c1.4-1.8,2.6-3.4,3.6-4.9c1-1.6,1.7-2.7,2.1-3.4l4.8-8.7l2.6-4.7c0.1-0.2,0.3-0.3,0.4-0.3c0.3-0.1,0.6,0.1,0.7,0.6
		c0,0.2,0,0.5-0.3,0.9c-0.4,0.9-0.9,1.9-1.4,2.9c-0.5,1-1.1,1.9-1.5,2.8c-0.6,1.1-1.4,2.5-2.2,4.1c-0.9,1.7-1.8,3.4-2.8,5.2
		c-1,1.8-1.9,3.4-2.9,4.8c-1.7,2.6-3.7,4.8-5.9,6.8C329.9,147.4,327.5,148.7,324.7,149.2z M322,126.1c0.8-0.2,1.7-0.7,2.8-1.6
		c1.1-0.8,2.2-1.8,3.4-2.8c1.2-1.1,2.2-2.1,3.2-3.2c0.9-1.1,1.7-1.9,2.3-2.7c1.1-1.3,1.8-2.6,2.2-4c0.4-1.4,0.5-2.5,0.3-3.5
		c-0.1-0.6-0.4-1.1-0.8-1.5c-0.4-0.4-0.9-0.5-1.6-0.4c-1.2,0.2-2.4,1.1-3.5,2.6c-1.2,1.5-2.3,3.2-3.3,5.3c-1,2.1-2,4.2-2.8,6.3
		C323.2,122.7,322.5,124.5,322,126.1z"/>
	<path class="st0" d="M348,173.7c-1.8,0.4-3.4,0.1-5-0.7c-1.5-0.8-2.6-2.4-3-4.7c-0.6-2.7-0.2-5.9,1-9.5c1.2-3.6,3.2-7.4,6-11.3
		c1.6-2.2,3.5-4.6,5.7-7.2c2.2-2.5,4.5-5,6.8-7.3c2.4-2.3,4.5-4.3,6.3-6c0.9-4,1.8-8,2.6-12c0.8-4,1.4-7.8,1.9-11.4
		c-0.6,2.1-1.4,4.5-2.4,7.3c-1,2.8-2.1,5.5-3.3,8.2c-1.2,2.7-2.7,5-4.3,6.9c-1.6,1.9-3.4,3.1-5.3,3.5c-2.1,0.4-3.7,0.1-4.9-1.1
		c-1.1-1.1-1.9-2.7-2.3-4.6c-0.4-2.1-0.5-4.3-0.3-6.8c0.2-2.5,0.5-4.7,1-6.6c0.6-2.6,1.5-5.3,2.7-7.9c1.2-2.7,2.6-5.1,4.1-7.5
		c1.6-2.3,3.2-4.3,5-5.8c1.8-1.6,3.6-2.5,5.5-2.9c1.5-0.3,3-0.3,4.7,0.1c1.6,0.4,3.1,1.4,4.5,2.9c1.4,1.6,2.4,3.9,3.1,7.2
		c0.2,1,0.2,1.8,0.1,2.3c-0.1,0.6-0.3,0.9-0.5,1c-0.4,0.1-0.8-0.7-1.1-2.2c-0.3-1.4-0.8-2.8-1.6-4.2c-0.8-1.4-1.7-2.5-2.8-3.3
		c-1.1-0.8-2.4-1.1-3.8-0.9c-1.6,0.2-3.2,0.9-4.6,2.2c-1.5,1.2-2.7,2.7-3.9,4.5c-1.1,1.8-2.1,3.6-2.9,5.5c-0.9,2.1-1.6,4.2-2.3,6.3
		c-0.6,2.1-1.2,4.1-1.6,6c-0.4,1.9-0.6,3.4-0.7,4.7c-0.2,2.1-0.2,3.9,0.1,5.2c0.5,2.4,1.5,3.4,3.1,3.1c1.3-0.3,2.6-1.5,4.1-3.7
		c0.8-1.3,1.7-2.8,2.6-4.6c1-1.7,1.9-3.5,2.8-5.4c0.9-1.8,1.7-3.5,2.5-5.1c0.7-1.5,1.3-2.8,1.7-3.6c0.1-0.4,0.3-0.9,0.7-1.6
		c0.3-0.6,0.5-1.7,0.7-3.2c0.1-1.3,0.5-2,1.1-2.1c0.6-0.1,1.1,0.4,1.3,1.4c0.1,1,0.1,2.4,0,4.3c-0.1,1.8-0.3,3.9-0.5,6.3
		c-0.2,2.3-0.5,4.7-0.8,7.1c-0.3,2.4-0.6,4.6-0.9,6.6c1-0.8,1.9-1.5,2.6-2l2-1.3c0.1,0,0.2-0.1,0.2-0.1c0,0,0.1-0.1,0.1-0.1
		c0.6-0.1,1,0.1,1.1,0.7c0.1,0.3-0.1,0.6-0.5,0.7c-0.6,0.4-1.5,1-2.5,1.7c-1,0.7-2.2,1.6-3.5,2.7c-0.6,4.4-1.5,8.8-2.4,13.1
		c-1,4.3-2,8.1-3.1,11.4c-2,5.9-4,10.5-6,13.9c-2,3.4-3.9,5.9-5.8,7.5C351.5,172.5,349.8,173.3,348,173.7z M347.1,171.8
		c1.2-0.2,2.3-0.9,3.3-1.9c1.1-1.2,2.3-2.8,3.4-4.9c1.2-2.1,2.2-4.4,3.3-7c1-2.6,2-5.1,2.8-7.7c0.8-2.6,1.5-4.9,2.1-7l3.2-13.5
		c-1.8,1.7-3.6,3.6-5.6,5.6s-3.8,4.1-5.6,6.3c-1.6,2-3.1,4.1-4.7,6.5c-1.6,2.3-3,4.7-4.2,7c-1.2,2.4-2.2,4.6-2.8,6.8
		c-0.6,2.1-0.7,4-0.4,5.6c0.3,1.5,1,2.7,2,3.4C344.9,171.9,345.9,172.1,347.1,171.8z"/>
	<path class="st0" d="M382.3,166.7c-1.8,0.4-3.4,0.1-5-0.7c-1.5-0.8-2.6-2.4-3-4.7c-0.6-2.7-0.2-5.9,1-9.5c1.2-3.6,3.2-7.4,6-11.3
		c1.6-2.2,3.5-4.6,5.7-7.2c2.2-2.5,4.5-5,6.8-7.3c2.4-2.3,4.5-4.3,6.3-6c0.9-4,1.8-8,2.6-12c0.8-4,1.4-7.8,1.9-11.4
		c-0.6,2.1-1.4,4.5-2.4,7.3c-1,2.8-2.1,5.5-3.3,8.2c-1.2,2.7-2.7,5-4.3,6.9c-1.6,1.9-3.4,3.1-5.3,3.5c-2.1,0.4-3.7,0.1-4.9-1.1
		c-1.1-1.1-1.9-2.7-2.3-4.6c-0.4-2.1-0.5-4.3-0.3-6.8c0.2-2.5,0.5-4.7,1-6.6c0.6-2.6,1.5-5.3,2.7-7.9c1.2-2.7,2.6-5.1,4.1-7.5
		c1.6-2.3,3.2-4.3,5-5.8c1.8-1.6,3.6-2.5,5.5-2.9c1.5-0.3,3-0.3,4.7,0.1c1.6,0.4,3.1,1.4,4.5,2.9c1.4,1.6,2.4,3.9,3.1,7.2
		c0.2,1,0.2,1.8,0.1,2.3c-0.1,0.6-0.3,0.9-0.5,1c-0.4,0.1-0.8-0.7-1.1-2.2c-0.3-1.4-0.8-2.8-1.6-4.2c-0.8-1.4-1.7-2.5-2.8-3.3
		c-1.1-0.8-2.4-1.1-3.8-0.9c-1.6,0.2-3.2,0.9-4.6,2.2s-2.7,2.7-3.9,4.5c-1.1,1.8-2.1,3.6-2.9,5.5c-0.9,2.1-1.6,4.2-2.3,6.3
		c-0.6,2.1-1.2,4.1-1.6,6c-0.4,1.9-0.6,3.4-0.7,4.7c-0.2,2.1-0.2,3.9,0.1,5.2c0.5,2.4,1.5,3.4,3.1,3.1c1.3-0.3,2.6-1.5,4.1-3.7
		c0.8-1.3,1.7-2.8,2.6-4.6c1-1.7,1.9-3.5,2.8-5.4c0.9-1.8,1.7-3.5,2.5-5.1c0.7-1.5,1.3-2.8,1.7-3.6c0.1-0.4,0.3-0.9,0.7-1.6
		c0.3-0.6,0.5-1.7,0.7-3.2c0.1-1.3,0.5-2,1.1-2.1c0.6-0.1,1.1,0.4,1.3,1.4c0.1,1,0.1,2.4,0,4.3c-0.1,1.8-0.3,3.9-0.5,6.3
		c-0.2,2.3-0.5,4.7-0.8,7.1c-0.3,2.4-0.6,4.6-0.9,6.6c1-0.8,1.9-1.5,2.6-2l2-1.3c0.1,0,0.2-0.1,0.2-0.1c0,0,0.1-0.1,0.1-0.1
		c0.6-0.1,1,0.1,1.1,0.7c0.1,0.3-0.1,0.6-0.5,0.7c-0.6,0.4-1.5,1-2.5,1.7c-1,0.7-2.2,1.6-3.5,2.7c-0.6,4.4-1.5,8.8-2.4,13.1
		c-1,4.3-2,8.1-3.1,11.4c-2,5.9-4,10.5-6,13.9c-2,3.4-3.9,5.9-5.8,7.5C385.7,165.5,384.1,166.3,382.3,166.7z M381.3,164.8
		c1.2-0.2,2.3-0.9,3.3-1.9c1.1-1.2,2.3-2.8,3.4-4.9c1.2-2.1,2.2-4.4,3.3-7c1-2.6,2-5.1,2.8-7.7c0.8-2.6,1.5-4.9,2.1-7l3.2-13.5
		c-1.8,1.7-3.6,3.6-5.6,5.6c-1.9,2-3.8,4.1-5.6,6.3c-1.6,2-3.1,4.1-4.7,6.5c-1.6,2.3-3,4.7-4.2,7c-1.2,2.4-2.2,4.6-2.8,6.8
		c-0.6,2.1-0.7,4-0.4,5.6c0.3,1.5,1,2.7,2,3.4C379.1,164.8,380.2,165.1,381.3,164.8z"/>
</g>
</svg>
